<svg xmlns="http://www.w3.org/2000/svg" viewBox="0 0 714.09 645.29"><defs><style>.cls-1{fill:lime;stroke:#000;stroke-miterlimit:10;stroke-width:2px;}.cls-2{fill:#39b54a;}</style></defs><title>Asset 1</title><g id="Layer_2" data-name="Layer 2"><g id="Layer_1-2" data-name="Layer 1"><path class="cls-1" d="M484.47,265.55c-1,254.86-1,256.19-5.42,269.66-16,50.57-43.31,79.72-89.24,95.63-7.42,2.42-17.84,4.63-23.06,4.63h-9.62l-.2-106.67c-.2-58.52-.81-113.07-1.61-121.46l-1.6-14.8H242.82c-99.27,0-110.9.44-112.1,3.53-.6,2-1.2,41.52-1.2,106.89s-.61,135.83-1.21,137.81c-1.2,3.76-6.82,4.86-6.82,1.55,0-1.1-3.81-2.43-8.42-3.09-12.63-1.77-22.46-4.2-23.66-5.74-2.41-3.1-10.43-6.85-15-6.85a13.78,13.78,0,0,1-8.83-4c-7-6.84-10-9.27-11.63-9.27-1,0-3-2-4.61-4.42s-3.81-4.42-5-4.42-4.21-3.09-7-6.84c-2.81-4-6.62-8.84-8.42-11-5-6-20.86-39.54-22.26-47.27-.61-3.75-2-11-3.21-16.56C1.37,512.68,0,5.39,2,1.86,2.58.75,7,.75,11.6,1.64c4.81,1.1,15.24,3.09,23.26,4.64s15,3.53,15.64,4.63c.61.89,3.21,1.77,6,1.77,2.61,0,4.81.88,4.81,2.21,0,1.1,1.61,2.21,3.61,2.21,1.81,0,5.62,2,8.43,4.41s5.81,4.42,6.61,4.42c1.61,0,19.25,19.21,26.47,28.71,5.42,7.07,14.64,30.48,17.85,45.28,5.22,24.51,6.82,54.1,5.82,101.36-.8,35.34-.4,44.17,1.6,45.72,4,2.65,221.8,2.65,223.4-.22.6-1.1,1.2-21.86,1.2-46.16,0-48.58,2-77.07,7-100.7,3.61-16.57,13-41.08,18.45-47.49a104.71,104.71,0,0,0,8.43-10.82c2.8-3.75,6-6.85,7.42-6.85s2.6-.88,2.6-1.76c0-1.11,2.41-3.31,5.62-5.08a42.56,42.56,0,0,0,8-6,11.32,11.32,0,0,1,6.62-2.65c2,0,3.81-1.11,3.81-2.21,0-1.33,1.6-2.21,3.61-2.21,1.8,0,5.61-1.33,8.42-2.87,5-2.87,21.26-6.85,37.5-9.28,6.82-.88,8.82-.44,10,2.65C484.67,7.6,485.07,124.65,484.47,265.55Z"/><path d="M426.31,2.08c-8.22,0-24.86,1.1-37.1,2C346.9,7.82,307.79,17.76,285.53,30.79,271.5,39,254.25,58.62,247,74.3,235.6,99,229.79,141,229.79,200.84v30.48h111.7l1.2-55.87c.8-39.76,2-60.3,4.41-72,11.63-57,34.29-83.7,84.23-98.5l10-3.09ZM395.23,14.67C364.55,34.1,347.3,66.13,341.08,115.15c-1.4,12.37-3.41,42.41-4.21,66.92l-1.4,44.83H233.8V204.16c.2-31.81,3.2-75.09,6.81-94.53,6.82-36.22,25.27-63.16,52.95-77.29C316.82,20.41,361.54,10,397.23,8.7l8-.44Z"/><path class="cls-2" d="M405.26,8.26l-10,6.41C364.55,34.1,347.3,66.13,341.08,115.15c-1.4,12.37-3.41,42.41-4.21,66.92l-1.4,44.83H233.8V204.16c.2-31.81,3.2-75.09,6.81-94.53,6.82-36.22,25.27-63.16,52.95-77.29C316.82,20.41,361.54,10,397.23,8.7Z"/><path d="M500.51,1.64l.4,71.11.6,71.33,28.08-.22c34.89,0,51.14-4.41,76.2-20.54a128.72,128.72,0,0,0,51.14-64.48c4.61-13,10-40.64,10-50.8V1.64ZM660.74,24.16c-6,42-25.47,74.65-57,94.75-23.86,15.24-41.11,20.1-73.2,20.54l-25.06.22-.61-65.59-.4-65.82L537,7.6C606.2,6.28,663,6.05,663,7.38,663,8,662,15.55,660.74,24.16Z"/><path d="M702.86,367.58c-24.67-67.36-81-110-156.22-118.81-20.26-2.21-42.92-2.65-44.72-.44-.81.66-1.41,32.46-1.41,70.67v69.12l5.62-1.54c8.82-2.43,34.69-1.77,45.52,1.32,22.86,6.19,35.09,23,35.09,48.37,0,27.38-7.62,44-24.66,54.11-7.42,4.41-11.43,4.85-34.9,4.85H500.51v7.95c0,13.7-8.22,44.4-16.64,62.28-12.64,27.17-32.29,48.59-57.36,62.28-5.81,3.32-10.22,6.19-9.82,6.41s39.5,0,86.83-.89c82.82-1.32,86.83-1.54,99.27-6.4,38.7-14.8,74.4-52.12,94.45-98.5,14.24-33.13,16.85-46.6,16.85-87.23C714.09,404.47,712.48,393.2,702.86,367.58ZM600.78,622.66c-12.43,4.86-16,5.08-89.24,5.75l-76,.88,11.83-9.94c31.28-25.4,49.13-58.52,55.75-102.91l2.41-16.13,12.83,1.11c35.7,3.09,61.36-10.16,69.39-35.56,4.41-14.35,4-43.28-.81-54.55-9.22-22.08-36.49-34.45-68.78-30.92l-13.64,1.33V317.89c0-35.11.6-64.49,1.41-65.15,1.8-2,13.83-1.76,37.3.66,56.35,6,102.47,30.92,132.15,71.56,34.49,47.26,44.92,115.06,27.27,175.8C686.41,556.63,645.7,605.22,600.78,622.66Z"/><path class="cls-2" d="M702.65,500.76c-16.24,55.87-56.95,104.46-101.87,121.9-12.43,4.86-16,5.08-89.24,5.75l-76,.88,11.83-9.94c31.28-25.4,49.13-58.52,55.75-102.91l2.41-16.13,12.83,1.11c35.7,3.09,61.36-10.16,69.39-35.56,4.41-14.35,4-43.28-.81-54.55-9.22-22.08-36.49-34.45-68.78-30.92l-13.64,1.33V317.89c0-35.11.6-64.49,1.41-65.15,1.8-2,13.83-1.76,37.3.66,56.35,6,102.47,30.92,132.15,71.56C709.87,372.22,720.3,440,702.65,500.76Z"/><path class="cls-2" d="M663,7.38c0,.66-1,8.17-2.21,16.78-6,42-25.47,74.65-57,94.75-23.86,15.24-41.11,20.1-73.2,20.54l-25.06.22-.61-65.59-.4-65.82L537,7.6C606.2,6.28,663,6.05,663,7.38Z"/><path d="M341.69,564.58,341.08,493l-55.55-.67c-30.68-.22-55.74.22-55.95,1.11,0,1.1,0,8.61.21,17.22.6,34,11.63,62.5,34.09,87.24,19.85,21.86,40.71,33.35,66.17,36.66l12,1.55Zm-5.62,66.7L328.65,630C274.91,620,233.8,567.89,233.8,509.81V496.34H336.07Z"/><path class="cls-2" d="M336.07,496.34V631.28L328.65,630C274.91,620,233.8,567.89,233.8,509.81V496.34Z"/></g></g></svg>